<mxfile host="app.diagrams.net" modified="2021-07-04T23:27:40.174Z" agent="5.0 (Windows NT 10.0; Win64; x64) AppleWebKit/537.36 (KHTML, like Gecko) Chrome/91.0.4472.124 Safari/537.36" etag="zI3SwALjK7n_i0PZqTRv" version="14.8.4" type="github">
  <diagram id="syVl9UAavMZzJATQrM8Q" name="Page-1">
    <mxGraphModel dx="1422" dy="800" grid="1" gridSize="10" guides="1" tooltips="1" connect="1" arrows="1" fold="1" page="1" pageScale="1" pageWidth="850" pageHeight="1100" math="0" shadow="0">
      <root>
        <mxCell id="0" />
        <mxCell id="1" parent="0" />
        <mxCell id="L0AqEkqThmB1juUANIMM-13" style="edgeStyle=orthogonalEdgeStyle;rounded=0;orthogonalLoop=1;jettySize=auto;html=1;" edge="1" parent="1" source="L0AqEkqThmB1juUANIMM-1" target="L0AqEkqThmB1juUANIMM-10">
          <mxGeometry relative="1" as="geometry">
            <Array as="points">
              <mxPoint x="310" y="380" />
            </Array>
          </mxGeometry>
        </mxCell>
        <mxCell id="L0AqEkqThmB1juUANIMM-1" value="category.jsx" style="rounded=0;whiteSpace=wrap;html=1;" vertex="1" parent="1">
          <mxGeometry x="40" y="360" width="120" height="60" as="geometry" />
        </mxCell>
        <mxCell id="L0AqEkqThmB1juUANIMM-3" value="product.jsx" style="rounded=0;whiteSpace=wrap;html=1;" vertex="1" parent="1">
          <mxGeometry x="40" y="450" width="120" height="60" as="geometry" />
        </mxCell>
        <mxCell id="L0AqEkqThmB1juUANIMM-18" style="edgeStyle=orthogonalEdgeStyle;rounded=0;orthogonalLoop=1;jettySize=auto;html=1;entryX=0.75;entryY=1;entryDx=0;entryDy=0;" edge="1" parent="1" source="L0AqEkqThmB1juUANIMM-4" target="L0AqEkqThmB1juUANIMM-16">
          <mxGeometry relative="1" as="geometry" />
        </mxCell>
        <mxCell id="L0AqEkqThmB1juUANIMM-4" value="header.jsx" style="rounded=0;whiteSpace=wrap;html=1;" vertex="1" parent="1">
          <mxGeometry x="680" y="660" width="120" height="60" as="geometry" />
        </mxCell>
        <mxCell id="L0AqEkqThmB1juUANIMM-17" style="edgeStyle=orthogonalEdgeStyle;rounded=0;orthogonalLoop=1;jettySize=auto;html=1;entryX=0.5;entryY=1;entryDx=0;entryDy=0;" edge="1" parent="1" source="L0AqEkqThmB1juUANIMM-7" target="L0AqEkqThmB1juUANIMM-16">
          <mxGeometry relative="1" as="geometry" />
        </mxCell>
        <mxCell id="L0AqEkqThmB1juUANIMM-7" value="footer.jsx" style="rounded=0;whiteSpace=wrap;html=1;" vertex="1" parent="1">
          <mxGeometry x="500" y="620" width="120" height="60" as="geometry" />
        </mxCell>
        <mxCell id="L0AqEkqThmB1juUANIMM-11" value="" style="edgeStyle=orthogonalEdgeStyle;rounded=0;orthogonalLoop=1;jettySize=auto;html=1;" edge="1" parent="1" source="L0AqEkqThmB1juUANIMM-9" target="L0AqEkqThmB1juUANIMM-10">
          <mxGeometry relative="1" as="geometry" />
        </mxCell>
        <mxCell id="L0AqEkqThmB1juUANIMM-19" style="edgeStyle=orthogonalEdgeStyle;rounded=0;orthogonalLoop=1;jettySize=auto;html=1;" edge="1" parent="1" source="L0AqEkqThmB1juUANIMM-9" target="L0AqEkqThmB1juUANIMM-16">
          <mxGeometry relative="1" as="geometry" />
        </mxCell>
        <mxCell id="L0AqEkqThmB1juUANIMM-9" value="index.js" style="whiteSpace=wrap;html=1;aspect=fixed;" vertex="1" parent="1">
          <mxGeometry x="490" y="420" width="80" height="80" as="geometry" />
        </mxCell>
        <mxCell id="L0AqEkqThmB1juUANIMM-15" style="edgeStyle=orthogonalEdgeStyle;rounded=0;orthogonalLoop=1;jettySize=auto;html=1;entryX=1;entryY=0.25;entryDx=0;entryDy=0;" edge="1" parent="1" source="L0AqEkqThmB1juUANIMM-10" target="L0AqEkqThmB1juUANIMM-3">
          <mxGeometry relative="1" as="geometry" />
        </mxCell>
        <mxCell id="L0AqEkqThmB1juUANIMM-10" value="categories.js" style="whiteSpace=wrap;html=1;aspect=fixed;" vertex="1" parent="1">
          <mxGeometry x="300" y="420" width="80" height="80" as="geometry" />
        </mxCell>
        <mxCell id="L0AqEkqThmB1juUANIMM-22" style="edgeStyle=orthogonalEdgeStyle;rounded=0;orthogonalLoop=1;jettySize=auto;html=1;" edge="1" parent="1" source="L0AqEkqThmB1juUANIMM-16" target="L0AqEkqThmB1juUANIMM-21">
          <mxGeometry relative="1" as="geometry" />
        </mxCell>
        <mxCell id="L0AqEkqThmB1juUANIMM-16" value="app.js" style="whiteSpace=wrap;html=1;aspect=fixed;" vertex="1" parent="1">
          <mxGeometry x="630" y="420" width="80" height="80" as="geometry" />
        </mxCell>
        <mxCell id="L0AqEkqThmB1juUANIMM-21" value="UI" style="ellipse;whiteSpace=wrap;html=1;" vertex="1" parent="1">
          <mxGeometry x="610" y="220" width="120" height="80" as="geometry" />
        </mxCell>
      </root>
    </mxGraphModel>
  </diagram>
</mxfile>
